<?xml version="1.0" standalone="no"?>
<!DOCTYPE svg PUBLIC "-//W3C//DTD SVG 20010904//EN"
 "http://www.w3.org/TR/2001/REC-SVG-20010904/DTD/svg10.dtd">
<svg version="1.0" xmlns="http://www.w3.org/2000/svg"
 width="1920.000000pt" height="1080.000000pt" viewBox="0 0 1920.000000 1080.000000"
 preserveAspectRatio="xMidYMid meet">

<g transform="translate(0.000000,1080.000000) scale(0.100000,-0.100000)"
fill="#000000" stroke="none">
<path d="M0 5400 l0 -5400 9600 0 9600 0 0 5400 0 5400 -3432 0 c-3120 0
-3430 -1 -3410 -16 12 -8 20 -19 17 -24 -3 -4 8 -21 25 -37 16 -15 30 -33 30
-40 0 -7 11 -15 25 -19 28 -7 27 -5 29 -61 1 -24 10 -50 20 -62 23 -26 56
-156 49 -195 -5 -29 -42 -76 -60 -76 -5 0 -16 -9 -26 -20 -20 -24 -37 -18 -37
11 0 23 -34 26 -56 4 -21 -20 -56 -19 -85 3 -49 37 -119 55 -119 31 0 -6 -6
-9 -12 -6 -7 2 -21 -2 -30 -11 -16 -13 -20 -13 -42 2 -14 9 -38 16 -54 16 -15
0 -33 5 -38 10 -12 12 -44 3 -44 -12 0 -6 -21 -8 -48 -6 -64 4 -160 -35 -168
-69 -7 -28 -25 -26 -39 5 -7 15 -19 22 -39 22 -16 0 -35 8 -42 18 -12 15 -13
15 -14 -10 0 -19 -4 -26 -14 -22 -8 3 -25 -6 -39 -20 -19 -19 -22 -26 -11 -26
8 0 12 -5 8 -11 -3 -6 -1 -22 7 -35 18 -35 2 -75 -35 -85 -39 -11 -66 21 -59
68 4 26 2 34 -13 39 -45 14 -49 20 -46 69 2 26 10 61 17 79 16 38 16 46 -1 71
-8 11 -14 30 -14 43 0 22 -2 23 -17 11 -10 -8 -14 -9 -10 -2 4 6 3 14 -2 17
-5 4 -12 2 -16 -3 -3 -6 -12 -8 -20 -5 -8 3 -25 -6 -38 -20 -13 -14 -32 -26
-42 -26 -10 0 -23 -7 -29 -15 -10 -13 -77 -26 -153 -29 -30 -1 -47 -9 -49 -24
-3 -21 -27 -72 -34 -72 -7 0 -19 -27 -25 -60 -1 -8 -6 -23 -9 -32 -5 -11 -1
-20 12 -27 17 -9 21 -8 25 7 4 16 5 15 6 -1 1 -13 8 -18 24 -17 40 4 47 0 57
-25 5 -14 20 -29 34 -34 30 -12 61 -51 82 -106 9 -24 22 -46 29 -49 20 -7 95
5 89 15 -3 5 -1 9 4 9 5 0 14 11 20 25 12 25 37 36 30 13 -5 -13 15 -38 29
-38 5 0 14 -14 20 -30 6 -17 17 -29 25 -28 7 2 12 -1 11 -7 -15 -97 -15 -105
1 -111 9 -3 16 -15 16 -25 0 -11 8 -22 18 -25 34 -11 47 -22 46 -40 -2 -45
-17 -104 -27 -104 -6 0 -7 -15 -4 -36 6 -36 35 -74 57 -74 5 0 10 -7 10 -16 0
-9 -5 -12 -13 -8 -9 6 -9 4 1 -7 16 -17 15 -32 -1 -26 -8 3 -20 1 -28 -4 -8
-5 -9 -9 -2 -9 18 0 2 -42 -29 -73 -15 -16 -28 -32 -28 -37 0 -4 -20 -17 -45
-29 -36 -17 -45 -26 -45 -46 0 -18 -5 -25 -19 -25 -11 0 -21 5 -23 12 -2 6
-11 12 -19 14 -7 1 -26 5 -41 9 -25 6 -27 5 -30 -31 -2 -31 -8 -39 -30 -45
-17 -4 -29 -3 -31 4 -2 7 -10 0 -17 -15 -13 -27 -45 -40 -100 -42 -19 -1 -27
-9 -35 -32 -7 -23 -14 -29 -25 -24 -146 71 -194 92 -240 104 -30 9 -86 25
-125 36 -38 12 -89 23 -113 25 -23 2 -59 9 -80 16 -49 16 -575 17 -615 1 -25
-11 -37 -5 -190 100 -89 61 -178 124 -197 139 -32 27 -60 37 -60 23 0 -3 11
-30 25 -60 14 -30 25 -57 25 -60 0 -22 91 -185 169 -304 53 -80 99 -152 102
-160 15 -35 31 -39 129 -29 52 5 124 11 160 14 105 8 288 25 390 35 52 6 140
12 195 15 55 2 129 7 165 11 64 6 66 6 78 -20 6 -14 15 -26 19 -26 12 0 207
-271 245 -340 11 -19 33 -57 48 -85 16 -27 36 -70 46 -95 9 -25 25 -56 34 -70
20 -30 42 -91 35 -98 -3 -3 -10 9 -16 27 -6 18 -14 30 -16 27 -3 -3 -16 -1
-29 4 -22 9 -26 5 -45 -38 -27 -60 -25 -59 -48 -31 l-20 24 -1 -23 c0 -13 3
-21 8 -18 4 2 16 -2 27 -10 18 -13 18 -14 -6 -14 -23 -1 -23 -1 -5 -15 11 -8
18 -16 15 -17 -2 -2 -13 -8 -24 -14 -11 -6 -24 -25 -30 -42 -12 -41 -35 -41
-75 -2 -17 16 -41 30 -55 30 -31 0 -59 -28 -46 -44 8 -9 5 -19 -10 -34 -11
-12 -18 -26 -15 -30 3 -4 28 -14 55 -22 32 -9 51 -19 51 -29 0 -8 7 -22 15
-31 14 -16 28 -75 60 -260 9 -53 10 -79 2 -88 -8 -10 -7 -16 1 -20 31 -20 42
-115 17 -160 -30 -55 -30 -55 -64 -37 -38 19 -51 12 -76 -40 -9 -19 -21 -35
-26 -35 -19 0 -4 -45 19 -55 12 -5 22 -13 22 -17 0 -10 -42 -20 -65 -16 -26 5
-37 -33 -19 -67 8 -16 13 -33 11 -39 -2 -6 -14 12 -28 39 -13 28 -40 71 -59
96 -19 26 -40 54 -46 64 -15 27 -30 12 -50 -48 -9 -28 -20 -56 -24 -62 -3 -5
-12 -30 -19 -55 -8 -25 -19 -58 -26 -75 -25 -62 -35 -92 -51 -150 -9 -33 -20
-76 -26 -95 -5 -19 -13 -55 -18 -80 -19 -107 -33 -167 -45 -190 -7 -14 -10
-34 -8 -45 8 -39 2 -108 -13 -129 -17 -25 -18 -53 -2 -58 7 -3 8 -10 4 -17 -7
-11 -10 -11 -17 0 -7 11 -11 8 -15 -9 -5 -17 -12 -22 -25 -19 -11 3 -19 0 -19
-6 0 -13 -42 -62 -72 -86 -17 -12 -18 -10 -18 33 0 26 4 45 8 42 18 -11 5 31
-17 53 -20 20 -21 24 -6 34 13 10 15 32 13 142 l-3 130 -150 0 c-188 -1 -236
-15 -301 -90 -43 -48 -63 -96 -80 -190 -7 -40 -40 -78 -61 -70 -15 5 -23 -29
-16 -73 l6 -37 -56 61 c-81 88 -195 134 -333 134 -41 0 -51 9 -68 63 -3 9 -13
17 -22 17 -15 0 -15 2 0 25 14 21 14 25 2 25 -7 0 -16 7 -20 15 -3 8 -12 15
-19 15 -8 0 -20 7 -27 15 -7 8 -22 15 -33 15 -11 0 -17 3 -14 6 7 7 -28 37
-55 47 -20 7 -23 22 -8 32 6 4 63 8 127 10 96 3 118 7 126 21 5 9 13 53 17 98
12 124 67 353 111 466 57 145 116 237 240 374 90 100 89 98 89 249 0 149 5
170 75 288 19 33 35 65 35 70 0 6 16 29 35 52 19 22 35 45 35 50 0 6 21 34 46
63 25 30 42 54 37 55 -36 4 -91 -6 -120 -22 -18 -10 -43 -19 -54 -19 -12 0
-33 -7 -47 -14 -15 -8 -56 -24 -92 -36 -36 -12 -74 -25 -85 -30 -11 -4 -35
-14 -52 -22 -18 -7 -33 -16 -33 -20 0 -5 -9 -8 -20 -8 -11 0 -35 -9 -55 -20
-20 -11 -51 -26 -70 -34 l-35 -15 -39 67 c-36 63 -50 87 -102 180 -12 20 -26
43 -32 50 -30 37 -109 182 -118 217 -6 22 -15 54 -20 71 -5 17 -9 38 -9 47 0
10 -4 25 -9 35 -5 9 -15 45 -22 80 -6 34 -15 62 -19 62 -3 0 -18 -33 -32 -72
-15 -40 -39 -104 -53 -143 -15 -38 -30 -81 -35 -95 -4 -14 -20 -51 -35 -83
l-27 -59 -24 39 c-13 21 -24 44 -24 50 0 7 -9 18 -20 25 -11 7 -20 18 -20 25
0 6 -6 14 -12 16 -10 4 -10 6 0 6 6 1 12 8 12 17 0 12 -6 15 -23 10 -18 -4
-27 1 -40 24 -10 16 -21 29 -25 29 -39 -6 -74 4 -97 28 l-25 28 0 -42 c0 -23
-4 -44 -9 -47 -10 -6 -21 26 -21 62 0 19 -4 22 -21 17 -18 -6 -20 -4 -15 13 5
16 0 21 -26 27 l-33 7 33 11 c36 11 39 19 16 41 -14 15 -14 16 5 16 11 0 25
-8 30 -17 8 -14 10 -4 11 42 0 58 -1 61 -30 72 -19 7 -34 22 -41 40 -8 25 -14
29 -38 25 -39 -6 -83 32 -75 65 5 18 1 25 -17 32 -16 5 -27 5 -31 -3 -4 -6 -8
-7 -8 -1 0 6 -14 -6 -31 -25 l-31 -35 29 55 c15 30 29 57 30 59 2 2 39 6 83 7
45 2 86 6 92 10 5 3 -14 20 -44 37 -29 16 -55 33 -58 37 -3 3 -20 12 -37 19
-18 8 -33 16 -33 20 0 14 -62 33 -88 26 -15 -4 -63 -12 -107 -17 -159 -17
-175 -20 -175 -29 0 -5 -11 -9 -25 -9 -14 0 -25 -5 -25 -11 0 -7 -10 -9 -25
-5 -18 5 -25 2 -25 -9 0 -8 -4 -15 -10 -15 -14 0 -12 12 6 38 8 12 12 22 8 22
-4 0 0 8 8 18 16 18 14 77 -3 88 -5 3 -9 14 -9 24 0 23 -51 53 -74 44 -9 -3
-18 -16 -21 -28 -2 -11 -6 -30 -8 -41 -3 -11 -5 32 -6 95 l-1 116 38 37 c21
20 43 37 50 37 7 0 12 4 12 9 0 14 125 33 152 22 13 -5 43 -14 68 -21 50 -14
95 -28 125 -40 11 -4 36 -14 55 -21 19 -7 43 -19 52 -27 10 -8 18 -12 18 -8 0
3 24 -6 52 -20 48 -24 57 -26 96 -15 50 13 225 15 250 2 109 -55 137 -75 191
-135 14 -16 31 -34 37 -40 6 -7 18 -26 27 -42 9 -17 23 -36 31 -43 14 -12 16
2 16 145 l-1 159 -29 33 c-36 39 -83 67 -141 82 -55 15 -152 -2 -234 -41 -32
-16 -62 -25 -66 -21 -4 4 -4 25 1 47 5 22 16 69 23 105 8 36 16 71 18 79 2 9
-5 17 -16 19 -11 2 -32 13 -47 23 -14 11 -35 19 -45 19 -10 0 -23 4 -29 9 -11
11 -86 36 -97 33 -5 -1 -20 4 -35 12 -37 19 -94 36 -121 36 -12 0 -33 7 -46
16 -13 9 -28 13 -34 10 -5 -3 -22 -1 -38 5 -15 7 -51 13 -80 14 -28 1 -58 7
-67 14 -8 7 -36 12 -63 11 -26 -1 -52 -1 -58 -1 -23 2 192 181 219 181 7 0 16
7 20 15 3 8 12 15 21 15 8 0 15 5 15 10 0 6 13 10 28 10 15 0 33 5 40 12 17
17 154 17 174 0 9 -7 29 -12 44 -10 16 1 39 -4 51 -10 12 -7 30 -12 40 -12 10
0 45 -14 78 -30 33 -17 63 -30 67 -30 7 0 129 -70 138 -80 3 -3 16 -11 29 -18
13 -8 40 -23 59 -34 54 -30 144 -93 175 -122 15 -14 30 -26 33 -26 12 0 205
-192 232 -232 9 -13 33 -43 55 -68 22 -25 42 -52 46 -61 15 -36 67 -109 76
-106 6 2 11 36 13 76 5 117 -51 255 -164 406 -29 39 -63 80 -76 93 -98 95
-150 140 -198 172 -30 20 -86 58 -125 84 -94 64 -290 157 -395 189 -47 13
-112 33 -145 43 -75 22 -299 32 -359 15 -60 -17 -69 -21 -207 -89 -111 -56
-136 -73 -221 -155 -53 -51 -126 -130 -162 -177 -135 -174 -148 -189 -154
-188 -13 3 -57 -15 -64 -26 -6 -8 -11 -7 -17 3 -5 7 -14 10 -20 6 -13 -7 -101
15 -101 26 0 3 -34 40 -75 82 -42 42 -75 84 -75 95 0 11 -7 25 -15 32 -8 7
-15 9 -15 5 0 -3 -13 6 -29 22 -19 20 -40 29 -62 30 -87 4 -107 11 -144 52
-23 26 -46 41 -60 41 -13 0 -30 7 -39 15 -8 8 -23 15 -33 15 -11 0 -29 10 -40
23 -11 12 -28 27 -37 32 -9 6 -23 28 -30 50 -9 25 -25 46 -43 56 -33 18 -41
65 -10 63 13 -1 17 6 17 37 0 23 5 42 13 44 6 3 13 21 14 40 l3 35 -3145 0
-3145 0 0 -5400z m6060 5218 c0 -7 -5 -20 -10 -28 -8 -12 -10 -9 -10 13 0 15
5 27 10 27 6 0 10 -6 10 -12z m7008 -89 c-2 -6 -8 -10 -13 -10 -5 0 -11 4 -13
10 -2 6 4 11 13 11 9 0 15 -5 13 -11z m360 -1 c-3 -7 -11 -13 -18 -13 -7 0
-15 6 -17 13 -3 7 4 12 17 12 13 0 20 -5 18 -12z m1082 -28 c0 -5 -5 -10 -11
-10 -5 0 -7 5 -4 10 3 6 8 10 11 10 2 0 4 -4 4 -10z m-8588 -145 c0 -5 -5 -11
-11 -13 -6 -2 -11 4 -11 13 0 9 5 15 11 13 6 -2 11 -8 11 -13z m180 -50 c0 -5
-5 -11 -11 -13 -6 -2 -11 4 -11 13 0 9 5 15 11 13 6 -2 11 -8 11 -13z m-217
-17 c16 -7 25 -19 25 -35 0 -12 -4 -23 -8 -23 -5 0 -15 -25 -22 -54 -12 -49
-39 -85 -41 -53 0 7 -5 1 -10 -13 -8 -20 -12 -22 -19 -10 -8 13 -10 12 -10 -2
0 -23 -7 -22 -57 2 -42 20 -53 35 -53 75 0 30 44 108 67 117 29 11 100 9 128
-4z m5454 -130 c6 -15 4 -34 -4 -55 -7 -17 -11 -34 -7 -37 3 -3 -2 -6 -11 -6
-9 0 -17 -4 -17 -10 0 -15 -69 -12 -85 4 -8 7 -17 25 -21 40 -3 14 -13 30 -22
35 -19 11 -9 41 15 41 10 0 34 -4 53 -10 27 -8 36 -7 43 5 12 23 46 18 56 -7z
m2801 -68 c0 -5 -4 -10 -10 -10 -5 0 -10 5 -10 10 0 6 5 10 10 10 6 0 10 -4
10 -10z m-2666 -55 c3 -9 0 -15 -10 -15 -9 0 -12 -5 -8 -12 4 -7 3 -8 -4 -4
-17 10 -15 46 2 46 8 0 16 -7 20 -15z m-99 -25 c3 -5 -1 -10 -10 -10 -9 0 -13
5 -10 10 3 6 8 10 10 10 2 0 7 -4 10 -10z m5015 -155 c0 -8 -4 -15 -10 -15 -5
0 -10 7 -10 15 0 8 5 15 10 15 6 0 10 -7 10 -15z m-2690 -15 c0 -5 -7 -10 -15
-10 -8 0 -15 5 -15 10 0 6 7 10 15 10 8 0 15 -4 15 -10z m-12142 -56 c18 -12
26 -13 37 -4 23 19 78 -25 71 -56 -3 -12 -3 -25 2 -28 4 -2 6 -25 4 -50 -2
-25 -7 -44 -12 -41 -4 2 -11 -14 -15 -38 -4 -23 -9 -48 -11 -56 -3 -16 -25
-32 -35 -25 -4 2 -10 -5 -14 -16 -3 -11 -11 -20 -17 -20 -6 0 -8 -10 -4 -25 4
-14 2 -25 -4 -25 -5 0 -7 -13 -3 -31 4 -21 -3 -51 -22 -99 -28 -69 -63 -107
-90 -96 -7 2 -19 -2 -25 -9 -12 -14 -57 -11 -70 4 -12 15 -61 30 -127 40 -94
14 -137 42 -157 101 -14 41 -14 47 2 69 9 13 24 34 33 47 8 13 35 38 59 55 42
31 43 31 37 80 -5 37 -3 49 8 49 8 0 16 18 20 50 5 40 11 50 26 50 11 0 21 9
25 24 7 29 45 37 112 24 26 -4 48 -4 51 1 3 5 21 12 38 16 18 3 35 11 38 16 8
13 17 11 43 -7z m11672 6 c0 -5 -4 -10 -10 -10 -5 0 -10 5 -10 10 0 6 5 10 10
10 6 0 10 -4 10 -10z m-12099 -83 c-8 -8 -11 -2 -11 19 0 40 14 54 18 19 2
-15 -1 -32 -7 -38z m38 -73 c3 -16 1 -17 -13 -5 -19 16 -21 34 -3 29 6 -3 14
-13 16 -24z m11046 -54 c3 -5 -1 -10 -10 -10 -9 0 -13 5 -10 10 3 6 8 10 10
10 2 0 7 -4 10 -10z m-6835 -40 c0 -5 -4 -10 -10 -10 -5 0 -10 5 -10 10 0 6 5
10 10 10 6 0 10 -4 10 -10z m6651 -206 c11 -14 10 -18 -6 -30 -24 -18 -30 -18
-45 1 -10 12 -10 18 0 30 16 19 34 19 51 -1z m591 -18 c17 -12 17 -14 0 -30
-23 -20 -36 -20 -52 -1 -10 12 -10 18 0 30 15 18 29 19 52 1z m-4946 -56 c8 0
13 -4 9 -10 -10 -16 -35 1 -34 24 1 16 2 17 6 4 2 -10 11 -18 19 -18z m3939
-21 c4 -5 4 -21 1 -35 -5 -17 -13 -24 -31 -24 -18 0 -26 7 -31 24 -8 32 2 46
31 46 13 0 27 -5 30 -11z m-325 -101 c-1 -40 -2 -42 -15 -24 -24 32 -19 55 13
65 1 1 2 -18 2 -41z m-4850 -103 c16 -19 67 -19 102 -1 16 9 30 11 33 5 9 -13
53 -11 57 3 5 15 38 -13 38 -32 0 -7 8 -9 20 -5 62 20 95 8 95 -34 0 -24 14
-41 34 -41 14 0 17 -6 13 -25 -4 -23 4 -30 31 -26 4 0 7 -3 7 -8 0 -15 58 -34
84 -27 30 7 76 -9 76 -27 0 -7 25 -40 55 -72 29 -32 59 -71 66 -86 15 -37 86
-79 122 -72 15 3 27 10 27 15 0 6 7 5 15 -2 8 -7 15 -9 15 -4 0 18 48 -40 53
-64 5 -27 -9 -67 -30 -90 -7 -7 -13 -26 -13 -42 0 -16 -5 -32 -10 -35 -6 -4
-8 -10 -5 -15 6 -11 -47 -50 -68 -50 -9 0 -19 5 -23 11 -3 6 -15 9 -25 6 -14
-4 -19 0 -19 13 0 26 -17 34 -28 13 -11 -20 -16 -67 -13 -124 l1 -37 37 9 c21
4 38 7 39 6 9 -9 6 -36 -5 -57 -18 -32 -33 -42 -43 -27 -6 9 -8 9 -8 0 0 -7
-9 -13 -20 -13 -11 0 -20 5 -20 12 0 7 -11 -3 -24 -22 -13 -19 -21 -41 -18
-49 4 -11 -1 -12 -21 -7 -14 3 -29 2 -32 -4 -3 -5 -14 -10 -24 -10 -10 0 -25
-10 -33 -21 -12 -19 -16 -20 -28 -8 -24 23 -60 22 -60 -1 0 -11 -4 -20 -10
-20 -5 0 -10 -13 -10 -30 0 -16 5 -30 10 -30 6 0 10 -9 10 -19 0 -11 5 -21 11
-23 7 -2 7 -17 1 -45 -7 -30 -6 -43 2 -47 16 -6 -29 -7 -47 0 -11 4 -13 17 -9
50 2 24 1 44 -4 45 -43 5 -84 5 -84 -1 0 -10 -81 -40 -91 -34 -5 3 -16 1 -26
-4 -18 -11 -53 7 -84 40 -9 10 -30 18 -47 18 -17 0 -34 5 -37 10 -8 13 -52 13
-60 0 -4 -6 -12 -7 -22 -1 -21 11 -53 2 -53 -15 0 -19 -21 -29 -30 -14 -4 7
-16 9 -29 5 -12 -3 -19 -11 -15 -16 3 -5 10 -6 16 -3 7 4 8 2 4 -4 -5 -9 -13
-9 -27 -2 -15 9 -19 7 -19 -5 0 -19 -34 -20 -50 0 -7 8 -18 15 -25 15 -7 0
-18 -7 -25 -15 -25 -30 -129 -9 -143 29 -3 8 -21 23 -39 32 -18 9 -38 24 -44
32 -7 9 -30 15 -65 16 -53 1 -54 1 -54 31 0 20 -12 45 -32 70 -28 34 -38 58
-35 86 1 3 3 34 6 69 3 34 7 64 9 66 2 2 18 -1 36 -7 51 -18 78 2 83 60 5 50
10 73 18 81 3 3 20 34 38 70 51 102 64 125 74 128 4 2 8 19 8 38 0 38 26 71
62 78 13 2 48 19 78 38 56 34 73 66 50 94 -9 9 0 23 33 56 25 24 58 53 73 65
16 12 43 33 59 47 34 29 67 33 85 11z m1089 -82 c8 -27 6 -33 -9 -38 -63 -20
-117 58 -73 107 16 18 18 18 45 -9 15 -16 32 -43 37 -60z m4601 17 c12 -22 -2
-60 -21 -60 -22 0 -49 21 -49 38 0 41 51 57 70 22z m5365 10 c3 -5 1 -10 -4
-10 -6 0 -11 5 -11 10 0 6 2 10 4 10 3 0 8 -4 11 -10z m-10688 -25 c0 -8 -4
-12 -9 -9 -5 3 -6 10 -3 15 9 13 12 11 12 -6z m353 -261 c0 -8 -4 -12 -10 -9
-5 3 -10 13 -10 21 0 8 5 12 10 9 6 -3 10 -13 10 -21z m4272 -44 c22 0 35 -45
18 -65 -10 -12 -9 -15 8 -15 19 0 20 -3 10 -30 l-10 -30 -17 22 c-21 28 -55
86 -64 112 -6 15 -4 17 15 12 13 -3 31 -6 40 -6z m1508 -144 c0 -3 -4 -8 -10
-11 -5 -3 -10 -1 -10 4 0 6 5 11 10 11 6 0 10 -2 10 -4z m1680 -111 c0 -8 -4
-15 -10 -15 -5 0 -10 7 -10 15 0 8 5 15 10 15 6 0 10 -7 10 -15z m-2042 -43
c4 -28 -24 -40 -45 -19 -14 13 -14 19 -3 32 18 22 44 15 48 -13z m-5288 -84
c0 -6 -7 -8 -15 -4 -18 7 -21 -24 -3 -42 9 -9 8 -12 -5 -12 -9 0 -17 3 -18 8
0 4 -2 18 -4 32 -1 14 -1 28 1 32 6 9 44 -3 44 -14z m967 -62 c-4 -10 -1 -13
9 -9 24 9 118 -44 138 -77 22 -38 62 -77 101 -97 17 -9 34 -22 38 -30 5 -7 13
-11 18 -7 11 7 1 -189 -12 -223 -6 -16 -17 -23 -34 -23 -14 0 -25 5 -25 10 0
6 -7 10 -14 10 -28 0 -65 45 -67 81 -2 19 -7 43 -12 53 -5 11 -11 42 -13 70
-1 28 -9 77 -16 109 -16 68 -24 64 -54 -23 -10 -30 -24 -64 -31 -75 -7 -11
-13 -26 -13 -34 0 -8 -8 -33 -18 -55 -10 -23 -25 -59 -32 -81 -26 -81 -32 -85
-126 -85 -49 0 -84 4 -84 10 0 6 13 10 28 10 31 0 65 37 74 80 3 14 7 32 9 40
3 10 -2 14 -16 12 -91 -15 -107 -7 -103 56 3 45 4 47 42 57 32 7 40 6 51 -8 7
-9 20 -17 30 -17 10 0 15 3 12 7 -4 3 -1 16 7 28 8 12 17 48 21 81 12 107 13
112 39 107 13 -3 27 0 30 6 4 6 2 11 -3 11 -6 0 -11 5 -11 10 0 6 9 10 21 10
14 0 19 -5 16 -14z m-837 -16 c11 -11 20 -27 20 -35 0 -21 -36 -55 -59 -55
-24 0 -51 26 -51 48 0 27 29 62 51 62 10 0 28 -9 39 -20z m-135 -38 c-9 -23
-24 3 -17 30 4 18 6 19 14 4 5 -10 7 -25 3 -34z m8495 14 c0 -8 -4 -17 -9 -21
-12 -7 -24 12 -16 25 9 15 25 12 25 -4z m-8237 -20 c6 -15 -1 -26 -15 -26 -4
0 -8 9 -8 20 0 23 15 27 23 6z m-325 -110 c7 -4 10 -12 7 -17 -4 -5 5 -13 18
-18 33 -13 30 -38 -4 -43 -15 -3 -26 -1 -23 4 3 4 -2 8 -10 8 -10 0 -16 9 -16
25 0 14 -4 25 -10 25 -5 0 -10 6 -10 13 0 14 27 16 48 3z m4562 -191 c0 -26
-29 -46 -51 -35 -24 13 -25 46 -2 59 21 11 53 -3 53 -24z m47 -79 c-8 -20 -36
-21 -43 -1 -4 8 0 22 7 31 11 13 14 13 27 0 8 -8 12 -22 9 -30z m-3096 1 c-10
-9 -11 -8 -5 6 3 10 9 15 12 12 3 -3 0 -11 -7 -18z m-2973 -24 c-5 -26 -38
-29 -38 -4 0 15 6 21 21 21 14 0 19 -5 17 -17z m337 -13 c-5 -8 -11 -8 -17 -2
-6 6 -7 16 -3 22 5 8 11 8 17 2 6 -6 7 -16 3 -22z m1900 -10 c-3 -11 -2 -25 4
-32 6 -7 24 -29 41 -48 16 -19 30 -40 30 -48 0 -7 7 -15 14 -18 8 -3 30 -36
49 -72 18 -37 39 -76 45 -87 11 -20 84 -174 120 -255 11 -25 30 -75 43 -110
12 -36 28 -76 35 -90 7 -14 33 -86 58 -161 25 -76 56 -160 68 -188 l23 -51 50
-1 c28 -1 53 -1 56 -1 4 1 46 6 95 12 92 12 254 4 254 -11 0 -5 -6 -9 -14 -9
-20 0 -34 -20 -48 -75 -7 -27 -23 -60 -35 -73 -12 -13 -21 -29 -20 -36 1 -6
-9 -10 -23 -9 -14 1 -19 -1 -12 -3 19 -8 14 -48 -9 -78 -16 -20 -20 -36 -16
-66 4 -38 4 -39 -25 -33 -16 3 -43 19 -61 36 -104 98 -360 126 -520 58 -103
-44 -187 -159 -187 -256 0 -28 -4 -35 -19 -35 -13 0 -22 12 -31 46 -19 65 -80
152 -138 197 -61 46 -136 74 -228 84 l-69 7 45 9 c25 4 70 11 100 16 30 4 62
11 70 14 15 7 201 42 300 58 30 4 80 13 110 19 30 6 83 13 117 17 37 3 60 9
57 15 -4 6 -93 9 -233 8 -124 -1 -273 -2 -330 -1 -103 1 -103 1 -96 24 4 12
11 60 16 107 5 47 13 121 19 165 12 94 24 233 43 475 8 96 15 172 16 167 2
-15 60 23 67 45 4 13 23 39 43 58 36 34 81 115 81 144 0 7 7 19 15 26 8 7 15
20 15 30 0 16 8 30 17 30 3 0 2 -9 -2 -20z m-909 -27 c-10 -10 -19 5 -10 18 6
11 8 11 12 0 2 -7 1 -15 -2 -18z m1634 -36 c0 -18 5 -38 11 -44 7 -7 7 -27 0
-69 -15 -79 -15 -77 22 -99 33 -20 34 -20 53 -4 6 5 33 12 60 16 27 3 52 10
55 16 12 18 29 -4 29 -39 0 -94 -22 -176 -67 -253 -58 -96 -105 -171 -153
-241 -21 -30 -41 -65 -45 -78 -15 -49 -36 -15 -94 153 -32 94 -78 221 -101
283 -24 63 -39 117 -34 121 5 4 35 14 66 21 64 15 78 26 101 87 9 23 25 61 36
85 10 24 21 51 25 61 10 31 36 20 36 -16z m-4965 -47 c0 -32 -3 -35 -32 -38
-28 -3 -33 0 -33 19 0 28 29 61 49 57 11 -2 16 -14 16 -38z m9175 -11 l22 -15
-25 -13 c-22 -12 -28 -12 -41 2 -10 10 -12 18 -6 22 6 4 8 10 5 15 -8 13 19 6
45 -11z m-6370 -34 c0 -8 -7 -15 -15 -15 -8 0 -15 7 -15 15 0 8 7 15 15 15 8
0 15 -7 15 -15z m4443 -496 c-7 -25 -43 -25 -43 -1 0 25 7 31 29 25 13 -3 17
-11 14 -24z m-6086 -35 c14 -29 3 -53 -35 -80 -17 -12 -23 -11 -46 11 -34 31
-34 55 0 55 17 0 28 6 31 20 7 28 36 25 50 -6z m5989 -39 c9 -40 -6 -24 -22
22 -11 30 -11 34 1 22 8 -8 17 -27 21 -44z m-3417 -57 l33 -38 -11 -119 c-7
-65 -9 -141 -6 -167 5 -36 2 -54 -8 -69 -15 -20 -15 -20 -21 5 -7 30 -26 142
-33 190 -3 19 -6 71 -8 115 -2 44 -6 100 -10 125 l-5 45 17 -25 c10 -14 33
-42 52 -62z m-2689 -18 c6 0 10 -24 10 -54 0 -41 4 -55 16 -58 13 -2 13 -6 2
-21 -12 -17 -16 -16 -66 9 -34 17 -52 32 -52 44 0 10 5 20 11 22 6 2 1 14 -10
27 -25 29 -25 32 -4 69 l17 29 33 -33 c19 -19 38 -34 43 -34z m6130 0 c0 -13
-1 -13 -10 0 -5 8 -10 22 -10 30 0 13 1 13 10 0 5 -8 10 -22 10 -30z m2110 0
c0 -5 -4 -10 -10 -10 -5 0 -10 5 -10 10 0 6 5 10 10 10 6 0 10 -4 10 -10z
m-2091 -65 c0 -5 -4 -3 -9 5 -5 8 -9 22 -9 30 0 16 17 -16 18 -35z m38 -167
c-3 -8 -6 -5 -6 6 -1 11 2 17 5 13 3 -3 4 -12 1 -19z m293 -62 c6 -8 10 -25 8
-38 -3 -20 -9 -23 -43 -23 -34 0 -40 3 -43 23 -2 13 -1 30 2 38 7 18 60 18 76
0z m120 -1 c17 -20 5 -45 -20 -45 -23 0 -35 22 -26 45 7 19 30 19 46 0z m-383
-92 c-2 -16 -4 -3 -4 27 0 30 2 43 4 28 2 -16 2 -40 0 -55z m-9072 37 c-3 -5
-10 -10 -16 -10 -5 0 -9 5 -9 10 0 6 7 10 16 10 8 0 12 -4 9 -10z m9506 -33
c-13 -13 -15 1 -4 30 7 17 8 17 11 -1 2 -10 -1 -23 -7 -29z m-5351 -141 c0
-149 -1 -154 -20 -149 -19 5 -20 14 -20 147 0 79 3 146 7 149 3 4 12 7 20 7
10 0 13 -32 13 -154z m440 59 c0 -91 -1 -95 -19 -85 -16 8 -20 23 -23 81 -3
74 4 99 27 99 12 0 15 -19 15 -95z m490 -715 l0 -811 -21 11 c-12 7 -81 12
-162 13 l-142 2 4 380 c3 420 1 405 69 419 26 6 31 13 37 49 4 23 15 56 24 72
8 17 16 35 16 40 1 6 6 20 13 32 7 12 12 29 12 38 0 9 5 13 10 10 6 -3 10 -1
10 4 0 6 6 11 14 11 8 0 17 8 21 18 13 36 28 -20 34 -132 6 -102 7 -92 14 124
4 129 7 296 7 371 0 129 6 159 32 159 4 0 8 -365 8 -810z m3230 711 l0 -99
-28 10 c-64 24 -112 -20 -112 -102 0 -29 4 -40 15 -40 8 0 24 -6 35 -12 16
-10 24 -10 40 0 45 28 50 19 50 -88 l0 -100 -25 12 c-20 9 -28 9 -38 -1 -9 -9
-13 -143 -15 -552 -2 -508 -4 -541 -20 -534 -9 4 -80 8 -157 8 l-140 2 -3 528
-2 528 -35 20 -35 21 0 83 0 83 33 -2 32 -1 6 97 c8 123 24 153 101 190 52 26
119 37 276 47 21 1 22 -2 22 -98z m2700 -703 l0 -803 -147 3 c-82 1 -153 5
-160 7 -6 2 -13 14 -15 27 -5 35 -54 38 -69 5 -15 -33 -104 -67 -175 -67 -102
0 -183 65 -204 163 -7 37 -10 204 -8 528 3 431 5 478 21 514 29 64 83 112 146
131 89 27 145 15 212 -43 25 -22 40 -28 54 -23 19 6 20 18 25 171 l5 164 134
2 c80 1 138 6 144 12 37 37 37 36 37 -791z m-7262 772 c47 0 83 -2 81 -4 -3
-3 -61 -6 -129 -7 -93 -1 -125 2 -128 11 -4 10 7 12 43 7 26 -4 86 -7 133 -7z
m-1158 -40 c0 -5 -4 -10 -10 -10 -5 0 -10 5 -10 10 0 6 5 10 10 10 6 0 10 -4
10 -10z m1015 -10 c8 -13 -14 -42 -26 -34 -5 3 -9 14 -9 25 0 20 24 26 35 9z
m5876 -33 c-13 -13 -15 1 -4 30 7 17 8 17 11 -1 2 -10 -1 -23 -7 -29z m-410
-66 c0 -102 -6 -131 -27 -131 -18 0 -18 24 1 75 8 22 14 67 15 99 0 33 3 57 6
54 3 -4 5 -47 5 -97z m-6494 63 c3 -8 0 -21 -6 -27 -14 -14 -44 2 -49 27 -5
22 46 22 55 0z m70 -36 c-3 -8 -6 -5 -6 6 -1 11 2 17 5 13 3 -3 4 -12 1 -19z
m6820 0 c-3 -8 -6 -5 -6 6 -1 11 2 17 5 13 3 -3 4 -12 1 -19z m-7423 -14 c3
-8 10 -12 16 -9 29 18 12 -76 -22 -124 -16 -22 -19 -23 -35 -10 -35 30 -67 38
-93 24 -29 -15 -40 -6 -40 36 0 34 25 55 91 78 69 24 76 24 83 5z m7413 -26
c-3 -8 -6 -5 -6 6 -1 11 2 17 5 13 3 -3 4 -12 1 -19z m1947 1 c-3 -5 -10 -7
-15 -3 -5 3 -7 10 -3 15 3 5 10 7 15 3 5 -3 7 -10 3 -15z m-9704 -49 c0 -5 -4
-10 -10 -10 -5 0 -10 5 -10 10 0 6 5 10 10 10 6 0 10 -4 10 -10z m-1400 -20
c0 -5 -2 -10 -4 -10 -3 0 -8 5 -11 10 -3 6 -1 10 4 10 6 0 11 -4 11 -10z
m5457 -40 c101 -35 165 -96 215 -205 23 -50 23 -54 23 -460 0 -406 0 -411 -23
-468 -30 -73 -75 -133 -131 -172 -42 -30 -43 -30 -179 -30 -283 0 -377 63
-418 282 -23 122 -16 701 9 787 25 85 44 120 88 166 40 41 144 100 178 100 10
0 34 7 52 15 40 17 108 11 186 -15z m858 5 c63 -18 136 -64 162 -101 45 -64
53 -93 60 -205 l6 -111 -23 12 c-15 8 -63 12 -136 11 -62 -1 -115 2 -118 7 -3
5 -8 36 -11 68 -9 90 -13 102 -40 120 -28 18 -75 12 -75 -10 0 -8 -7 -27 -15
-42 -20 -38 -19 -118 2 -161 19 -41 56 -70 201 -156 130 -77 194 -143 217
-222 26 -88 18 -331 -13 -400 -25 -54 -72 -109 -112 -130 -49 -25 -150 -35
-247 -25 -157 16 -268 73 -304 154 -24 55 -47 230 -40 304 1 9 36 12 141 12
l140 0 1 -32 c1 -92 17 -201 30 -209 25 -15 88 -7 106 14 25 27 25 158 1 203
-11 21 -61 61 -140 115 -156 104 -224 162 -247 208 -30 58 -44 153 -38 251 12
194 60 272 187 310 37 11 76 20 86 20 10 0 26 4 34 10 19 12 122 4 185 -15z
m2312 -1 c67 -18 150 -85 180 -144 12 -25 27 -76 33 -115 5 -39 10 -289 10
-556 l0 -486 -149 -2 -149 -2 -7 30 c-11 50 -64 51 -80 1 -8 -25 -85 -50 -152
-50 -91 0 -172 48 -192 114 -38 122 -39 367 -2 451 25 56 71 89 247 177 102
50 145 76 153 94 13 30 15 203 2 237 -25 64 -79 77 -107 25 -12 -25 -18 -67
-22 -162 -2 -75 -8 -123 -13 -115 -6 10 -36 14 -111 15 -57 0 -121 1 -142 2
l-39 2 6 98 c12 182 48 266 141 329 53 36 96 50 201 68 76 13 113 11 192 -11z
m1031 -2 c44 -20 97 -83 113 -135 9 -31 13 -186 16 -607 l4 -565 -148 3 c-81
2 -154 5 -160 7 -10 3 -13 114 -13 507 0 308 -4 517 -10 539 -12 44 -31 62
-65 62 -29 0 -36 -5 -39 -25 -1 -7 -6 -20 -11 -28 -6 -9 -11 -222 -13 -540
l-3 -525 -152 3 c-83 2 -153 5 -155 7 -2 2 -4 288 -5 636 l-2 634 130 3 c71 1
134 7 139 12 6 6 18 10 28 10 15 0 18 -9 18 -52 1 -42 3 -49 11 -35 8 14 14
15 24 7 11 -9 21 -3 47 25 22 24 55 44 98 59 68 24 93 24 148 -2z m-2451 -3
c108 -40 165 -94 215 -204 23 -50 23 -54 23 -450 0 -445 -1 -455 -65 -554 -61
-95 -149 -134 -299 -132 -242 3 -349 71 -386 246 -11 53 -15 146 -15 385 0
405 12 486 84 586 53 72 128 111 256 132 89 15 126 13 187 -9z m4211 -13 c78
-36 151 -113 184 -194 23 -56 23 -62 23 -452 0 -440 -1 -450 -66 -550 -54 -85
-93 -107 -211 -122 -178 -22 -340 18 -408 100 -17 20 -41 69 -53 107 -21 67
-22 85 -22 450 0 414 3 444 59 540 67 114 167 156 356 151 58 -1 89 -8 138
-30z m-7128 -652 c0 -566 -2 -665 -14 -655 -8 7 -69 13 -160 14 -80 2 -148 6
-152 9 -8 8 7 428 15 429 3 0 15 2 26 5 35 7 79 7 110 0 34 -8 94 -43 96 -57
1 -5 2 -12 3 -16 1 -5 6 -28 11 -53 9 -45 9 -44 16 40 4 47 7 275 8 508 0 232
3 427 6 432 3 6 13 10 21 10 12 0 14 -93 14 -666z m-710 627 c5 -11 10 -83 10
-160 0 -119 2 -141 15 -141 8 0 15 -7 15 -15 0 -19 -43 -20 -58 -2 -9 10 -16
203 -13 315 1 27 17 29 31 3z m5318 -40 c8 -4 12 -19 10 -32 -2 -17 -10 -25
-29 -27 -31 -4 -44 19 -29 49 11 20 27 24 48 10z m-10178 -31 c0 -5 -4 -10
-10 -10 -5 0 -10 5 -10 10 0 6 5 10 10 10 6 0 10 -4 10 -10z m3122 -50 c17 0
62 -80 51 -89 -3 -4 -8 0 -10 7 -3 6 -13 12 -24 12 -22 0 -79 53 -79 74 0 22
13 27 30 11 9 -8 24 -15 32 -15z m181 -55 c5 -25 4 -49 -3 -63 -9 -20 -16 -22
-62 -19 -40 2 -54 7 -56 20 -2 9 1 17 7 17 6 0 11 8 11 19 0 28 47 73 72 69
17 -2 24 -13 31 -43z m4559 -147 c2 -21 0 -38 -4 -38 -4 0 -7 24 -7 53 1 54 5
49 11 -15z m923 40 c2 -7 8 -61 12 -120 9 -109 6 -118 -28 -118 -5 0 -9 56 -9
125 0 79 4 125 10 125 6 0 13 -6 15 -12z m475 -37 c0 -26 3 -68 6 -93 5 -36 3
-46 -10 -51 -14 -6 -16 6 -16 93 0 60 4 100 10 100 6 0 10 -22 10 -49z m-4160
-126 c0 -143 0 -145 -20 -135 -18 10 -20 21 -20 139 0 129 2 141 27 141 10 0
13 -31 13 -145z m-1782 108 c-2 -10 -12 -18 -23 -18 -11 0 -21 8 -23 18 -3 13
3 17 23 17 20 0 26 -4 23 -17z m2782 -298 c-6 -38 -7 -23 -7 65 0 101 1 107 7
50 4 -35 4 -87 0 -115z m1756 137 c19 -12 25 -61 29 -262 3 -107 7 -220 10
-250 13 -128 62 -226 139 -279 55 -38 176 -71 262 -71 76 0 78 -1 158 -167 32
-65 64 -130 72 -145 8 -14 14 -31 14 -37 0 -7 8 -24 17 -38 22 -33 54 -123 44
-123 -4 0 -13 16 -21 35 -15 38 -36 49 -24 13 10 -33 7 -129 -5 -141 -16 -16
-14 -35 6 -61 l18 -23 10 21 c16 31 49 27 53 -6 2 -21 -1 -28 -13 -28 -9 0
-13 -5 -9 -11 3 -6 3 -14 -2 -18 -5 -3 -14 -17 -21 -31 -10 -24 -9 -26 19 -28
17 -1 39 -7 49 -13 23 -12 25 -52 3 -73 -14 -14 -14 -16 0 -16 33 0 40 -55 10
-73 -8 -4 -14 -19 -14 -33 0 -14 4 -23 9 -20 21 13 36 -32 19 -59 -13 -22 -19
-73 -9 -80 6 -3 11 -21 11 -38 0 -24 3 -28 10 -17 11 18 17 12 21 -22 3 -17
-4 -35 -17 -50 -34 -38 -49 -85 -33 -104 19 -24 23 -64 5 -64 -7 0 -17 7 -20
16 -8 20 -26 9 -26 -16 0 -10 9 -22 20 -25 20 -6 20 -7 -2 -38 -12 -18 -25
-34 -28 -37 -3 -3 -7 -16 -8 -30 -1 -28 -27 -51 -48 -43 -9 3 -14 -2 -14 -13
-1 -18 -1 -18 -11 -1 -16 27 -26 20 -34 -25 -4 -24 -9 -36 -12 -28 -11 36 -28
60 -45 66 -14 4 -16 9 -8 18 8 11 -1 13 -44 12 -64 -2 -73 -8 -58 -39 11 -24
22 -77 15 -77 -2 0 -15 26 -29 58 -14 31 -40 89 -58 127 -43 90 -58 135 -45
135 5 0 12 -7 16 -16 10 -26 23 6 16 41 -7 35 -20 55 -38 55 -17 0 -28 -31
-15 -44 15 -15 12 -30 -4 -17 -12 10 -66 113 -66 126 0 3 7 5 15 5 9 0 18 7
21 15 4 8 13 15 21 15 8 0 11 -4 8 -10 -3 -5 1 -10 9 -10 9 0 16 -4 16 -10 0
-5 5 -10 10 -10 23 0 9 38 -16 44 -28 7 -28 29 1 34 11 3 15 0 11 -7 -4 -6 3
-15 16 -20 17 -6 26 -4 35 8 15 20 17 55 3 46 -6 -4 -17 -2 -25 5 -10 8 -15 8
-21 -1 -5 -9 -10 -7 -15 7 -7 17 -8 17 -8 -3 -1 -17 -7 -23 -25 -23 -14 0 -27
4 -30 9 -11 16 6 41 28 42 l21 2 -22 4 c-11 2 -33 22 -48 44 -30 46 -61 61
-90 45 -11 -6 -21 -11 -23 -12 -1 0 5 -15 14 -33 9 -18 14 -35 10 -38 -3 -3
-11 7 -18 23 -7 16 -18 34 -24 39 -6 6 -27 35 -48 65 -37 56 -84 120 -113 154
-9 11 -37 47 -61 80 -25 34 -62 77 -81 97 -55 56 -105 113 -111 125 -15 35
-307 337 -405 419 -32 28 -92 81 -133 118 -41 37 -85 75 -98 84 -29 19 -30 41
-4 85 48 82 53 112 59 358 l6 235 30 3 c26 2 36 -5 75 -54 29 -37 76 -78 134
-116 l88 -58 -140 0 c-105 0 -142 -3 -151 -13 -15 -19 -16 -155 -2 -242 34
-205 171 -305 417 -305 185 0 310 67 373 200 23 50 26 68 29 212 5 199 -7 244
-85 329 -29 31 -76 72 -103 89 -28 18 -50 34 -50 36 0 7 215 4 226 -4z m6784
-22 c0 -5 -4 -10 -10 -10 -5 0 -10 5 -10 10 0 6 5 10 10 10 6 0 10 -4 10 -10z
m-9772 -433 c1 -180 -1 -327 -5 -327 -5 0 -16 7 -26 14 -10 8 -27 12 -38 9
-10 -3 -71 -2 -134 2 l-116 7 3 112 3 111 55 37 c30 20 57 36 60 36 23 -2 42
6 74 27 21 14 41 23 46 20 4 -3 12 -29 16 -58 l8 -52 7 85 c4 47 7 136 8 198
1 102 3 113 19 110 16 -3 17 -28 20 -331z m2586 65 c30 -59 28 -162 -4 -162
-12 0 -17 25 -25 123 -6 82 1 92 29 39z m1330 -79 c3 -10 4 -83 2 -163 -5
-188 1 -209 69 -228 28 -7 67 -15 88 -16 37 -3 87 -38 87 -60 -1 -17 -49 -48
-66 -42 -7 3 -14 1 -14 -3 0 -5 -20 -8 -44 -6 -33 2 -46 -2 -51 -13 -3 -8 0
-19 7 -24 7 -4 9 -8 3 -8 -5 0 -53 41 -105 90 -52 50 -95 90 -96 90 -1 0 -15
12 -32 28 l-29 28 45 49 c57 63 91 137 105 226 10 68 21 85 31 52z m-2687 -60
c-2 -16 -4 -5 -4 22 0 28 2 40 4 28 2 -13 2 -35 0 -50z m7313 47 c0 -5 -4 -10
-10 -10 -5 0 -10 5 -10 10 0 6 5 10 10 10 6 0 10 -4 10 -10z m-7279 -197 c-9
-16 -10 -16 -11 -1 0 9 3 25 7 35 7 16 8 17 11 1 2 -10 -1 -25 -7 -35z m10154
17 c3 -5 1 -10 -4 -10 -6 0 -11 5 -11 10 0 6 2 10 4 10 3 0 8 -4 11 -10z
m-10175 -129 c-6 -23 -15 -41 -21 -41 -6 0 -8 8 -6 18 30 109 32 115 35 90 2
-15 -2 -45 -8 -67z m-439 -51 c15 -7 49 -10 76 -9 44 3 49 1 62 -26 8 -16 18
-43 22 -59 5 -17 19 -60 32 -96 13 -36 27 -74 31 -85 4 -11 18 -49 32 -85 13
-36 24 -73 24 -82 0 -10 9 -33 20 -53 11 -20 20 -44 20 -53 0 -10 9 -37 20
-60 l20 -42 111 0 c102 0 111 1 104 18 -6 15 -30 114 -56 234 -12 54 -6 72 22
63 10 -4 43 -2 72 4 28 5 96 13 149 16 l97 7 11 46 c6 26 12 68 14 94 2 26 9
70 16 98 l12 50 42 0 43 0 48 -97 c42 -85 48 -105 46 -153 -5 -125 -29 -261
-49 -273 -9 -6 -11 -21 -7 -52 5 -27 3 -45 -4 -49 -6 -4 -11 -20 -11 -36 0
-16 -4 -39 -9 -52 -5 -13 -16 -48 -26 -78 -29 -91 -116 -303 -136 -332 -11
-14 -19 -30 -19 -35 0 -11 -98 -113 -109 -113 -5 0 -14 7 -21 15 -7 8 -19 15
-26 15 -8 0 -14 3 -14 8 0 4 -13 13 -29 20 -26 12 -29 18 -34 75 -10 112 -19
139 -52 157 -17 10 -33 15 -37 13 -5 -2 -8 0 -8 6 0 5 -15 26 -32 45 -32 34
-44 37 -110 27 -5 -1 -18 -11 -30 -23 l-21 -21 -21 29 c-11 15 -29 35 -38 43
-10 9 -18 19 -18 24 0 5 -10 23 -23 40 -12 18 -27 39 -32 48 -6 9 -36 52 -67
95 -32 44 -63 91 -70 107 -7 15 -16 27 -20 27 -8 0 -38 59 -38 76 0 7 -3 14
-7 16 -11 4 -103 145 -103 156 0 5 -9 17 -20 27 -11 10 -20 23 -20 29 0 6 -16
35 -35 64 -40 61 -51 107 -32 142 11 22 23 26 87 35 l75 10 4 40 3 40 21 -42
c12 -25 32 -47 48 -53z m-538 1 c5 -20 76 -39 97 -26 6 4 10 -7 10 -27 0 -19
4 -38 8 -43 5 -6 14 -37 21 -70 18 -88 49 -192 75 -255 13 -30 29 -75 36 -100
8 -25 17 -49 20 -55 4 -5 21 -47 39 -92 18 -45 39 -87 47 -94 8 -6 14 -26 14
-43 0 -20 7 -36 20 -44 11 -7 20 -20 20 -29 0 -9 12 -31 26 -50 l25 -34 -31
-29 c-30 -28 -44 -31 -80 -17 -23 9 -49 5 -47 -7 1 -6 -11 -12 -26 -14 -21 -3
-30 1 -34 16 -4 16 -13 20 -55 20 -44 0 -49 -3 -45 -19 3 -11 1 -19 -5 -19 -5
0 -7 -4 -3 -10 10 -16 -19 -50 -43 -50 -13 0 -21 3 -19 8 3 4 -15 5 -39 3 -39
-3 -44 -1 -44 18 0 14 -6 21 -19 21 -16 0 -18 9 -19 70 -1 70 -1 70 27 70 27
0 27 1 23 55 l-4 54 49 30 c100 63 120 80 127 112 8 40 -8 67 -48 84 -27 12
-34 21 -44 65 -16 67 -15 112 3 185 18 75 18 75 1 75 -22 0 -36 54 -25 92 15
53 11 65 -19 71 -47 10 -76 39 -68 70 7 31 22 35 29 8z m4667 5 c0 -3 -4 -8
-10 -11 -5 -3 -10 -1 -10 4 0 6 5 11 10 11 6 0 10 -2 10 -4z m7330 -36 c0 -5
-7 -10 -15 -10 -8 0 -15 5 -15 10 0 6 7 10 15 10 8 0 15 -4 15 -10z m-15470
-30 c0 -5 -4 -10 -10 -10 -5 0 -10 5 -10 10 0 6 5 10 10 10 6 0 10 -4 10 -10z
m9080 -50 c0 -13 -7 -20 -20 -20 -22 0 -28 25 -7 33 22 10 27 7 27 -13z
m-1602 -29 c8 -5 12 -21 10 -37 -3 -25 -7 -29 -33 -29 -24 0 -31 5 -33 23 -6
39 25 63 56 43z m-156 -35 c-2 -10 3 -16 10 -15 7 1 20 1 28 0 12 -1 12 -4 -2
-12 -10 -5 -18 -14 -18 -19 0 -5 8 -10 18 -12 13 -3 10 -8 -15 -21 -39 -21
-62 -22 -69 -2 -4 8 -12 15 -18 15 -7 0 -12 10 -10 23 1 12 3 27 3 33 1 13 40
32 61 29 8 -1 14 -10 12 -19z m8 -131 c11 -13 10 -14 -4 -9 -9 3 -16 10 -16
15 0 13 6 11 20 -6z m178 6 c21 -13 11 -55 -14 -59 -30 -4 -48 21 -34 47 11
22 27 26 48 12z m200 -82 c2 -15 -3 -33 -10 -40 -7 -8 -13 -20 -14 -26 -2 -30
-5 -33 -30 -33 -16 0 -24 5 -21 13 2 6 12 11 21 11 22 -2 20 9 -4 24 -14 8
-20 23 -20 48 0 35 1 35 38 32 32 -3 37 -7 40 -29z m4720 -152 c5 -20 6 -20
13 -1 7 19 7 19 14 -1 22 -62 28 -74 38 -68 6 4 8 -2 5 -15 -4 -14 -1 -25 8
-30 16 -9 9 -72 -7 -72 -5 0 -9 -7 -9 -15 0 -19 -36 -20 -47 -1 -10 18 -115
25 -121 8 -2 -7 -12 -12 -22 -12 -10 0 -26 -7 -34 -16 -15 -14 -16 -14 -16 4
0 11 7 32 14 48 8 15 13 31 11 35 -3 4 1 9 9 12 7 3 16 25 19 48 3 24 11 45
16 47 6 2 11 9 11 16 0 17 50 44 73 38 11 -3 22 -14 25 -25z m-5468 -16 c0 -5
3 -18 6 -28 6 -15 3 -14 -15 4 -25 26 -26 33 -6 33 8 0 15 -4 15 -9z m1419 -5
c10 -12 6 -15 -18 -21 -43 -9 -76 2 -60 21 15 18 63 18 78 0z m-229 -56 c-19
-13 -30 -13 -30 0 0 6 10 10 23 10 18 0 19 -2 7 -10z m4112 -250 c-6 -44 -28
-38 -37 10 -3 15 2 20 19 20 19 0 22 -4 18 -30z m-5171 -72 c10 -27 14 -48 9
-48 -6 0 -10 5 -10 12 0 6 -9 21 -20 33 -16 17 -19 29 -13 56 5 25 8 29 11 14
2 -11 13 -41 23 -67z m-1462 17 l74 -40 128 -190 c70 -104 170 -253 223 -330
53 -77 96 -146 96 -152 0 -7 5 -13 11 -13 5 0 7 -4 4 -10 -3 -5 -2 -10 3 -10
13 0 23 -27 16 -45 -3 -8 -14 -17 -25 -20 -10 -4 -18 -9 -17 -13 1 -4 -4 -17
-12 -29 -12 -18 -17 -20 -34 -11 -19 10 -20 10 -7 -5 12 -15 10 -17 -25 -17
-25 0 -34 -3 -26 -9 7 -4 12 -14 10 -21 -3 -14 1 -15 50 -18 12 -1 22 -9 22
-17 0 -8 4 -15 8 -15 4 0 14 -16 21 -35 11 -33 29 -44 44 -28 15 14 56 10 75
-7 14 -14 32 -18 71 -16 76 5 79 -3 52 -144 -13 -65 -20 -123 -17 -129 4 -6
-1 -25 -10 -43 -10 -18 -21 -55 -26 -83 -21 -135 -28 -173 -39 -215 -6 -25
-13 -79 -16 -120 -3 -41 -10 -81 -15 -87 -6 -7 -7 -21 -4 -30 6 -14 13 -8 37
30 16 26 29 51 29 57 0 5 4 10 10 10 5 0 16 15 24 32 19 41 72 134 97 170 10
14 19 29 19 32 0 3 20 37 45 76 25 39 45 73 45 76 0 4 16 29 35 55 19 27 35
52 35 57 0 4 9 18 20 32 16 20 20 21 20 8 0 -10 14 -27 30 -40 17 -12 30 -29
30 -37 0 -12 2 -13 9 -3 6 10 14 10 37 -4 43 -25 83 -13 81 23 -2 26 1 28 47
34 28 3 52 11 54 17 2 7 12 12 21 12 12 0 24 16 37 45 16 40 22 45 50 45 21 0
36 7 45 21 16 23 99 40 99 20 0 -7 17 -28 37 -47 l37 -35 33 35 c44 46 118 71
169 57 45 -12 49 -10 34 19 -10 20 -10 21 8 11 24 -13 46 -64 39 -92 -4 -15 1
-23 20 -32 21 -9 24 -15 18 -45 -6 -32 11 -109 23 -98 3 3 12 1 19 -6 34 -28
36 54 2 91 -10 11 -19 24 -19 29 0 5 -9 19 -20 32 -21 24 -26 40 -12 40 19 0
94 -146 103 -202 13 -83 -40 -236 -109 -314 -15 -16 -64 -56 -109 -88 -46 -33
-83 -63 -83 -68 0 -4 -5 -8 -10 -8 -12 0 -80 -46 -167 -113 -34 -26 -64 -47
-67 -47 -3 0 -17 -11 -32 -25 -15 -14 -31 -25 -36 -25 -6 0 -30 -18 -55 -40
-25 -21 -48 -38 -52 -37 -3 1 -15 -7 -27 -18 -36 -34 -64 -55 -74 -55 -5 0
-14 -9 -20 -20 -6 -11 -17 -20 -26 -20 -11 0 -8 7 10 25 14 14 29 25 34 25 5
0 17 9 27 20 22 24 13 90 -11 90 -9 0 -30 10 -47 22 -40 29 -111 29 -139 0
-23 -23 -32 -119 -10 -114 11 2 16 -10 13 -30 0 -5 7 -8 18 -8 10 0 24 -7 31
-15 7 -8 21 -15 31 -15 24 0 25 -18 2 -27 -10 -4 -33 -22 -50 -40 -18 -18 -42
-33 -53 -33 -11 0 -20 -7 -20 -15 0 -18 -30 -34 -67 -37 -15 -1 -39 -8 -53
-15 -49 -25 -77 -5 -38 27 26 22 49 25 64 10 16 -16 76 0 81 22 3 10 9 18 14
18 5 0 9 5 9 11 0 7 8 18 18 25 16 12 15 15 -14 42 -37 34 -44 51 -32 75 5 11
5 17 -2 17 -5 0 -9 5 -8 12 2 6 -6 14 -16 16 -10 2 -28 12 -39 23 -15 14 -24
16 -38 8 -11 -5 -19 -15 -19 -21 0 -7 -6 -4 -13 6 -12 16 -16 17 -37 5 -17
-11 -24 -11 -27 -2 -3 9 -10 9 -31 0 -15 -6 -29 -15 -32 -18 -10 -13 -80 -22
-81 -10 -3 26 -4 30 -13 38 -5 5 -6 3 -2 -4 5 -9 2 -11 -9 -7 -12 5 -13 10 -6
17 14 14 14 60 1 52 -5 -3 -10 1 -10 10 0 9 -4 13 -10 10 -5 -3 -10 -1 -10 5
0 6 -5 8 -11 4 -6 -3 -15 -1 -19 7 -5 7 -16 14 -26 15 -46 7 -64 26 -64 68 0
23 -5 59 -11 81 -5 22 -14 72 -19 110 -11 94 -26 125 -59 126 -23 1 -22 2 8
11 26 7 31 12 20 19 -11 7 -10 9 6 10 11 0 14 3 8 6 -18 7 -16 23 2 23 15 0
19 -11 15 -40 -1 -9 12 -2 32 18 19 17 39 32 44 32 6 0 17 11 24 25 7 14 19
25 26 25 22 0 25 18 9 50 -12 23 -12 30 -3 30 9 0 8 3 -2 10 -8 5 -12 10 -7
10 10 0 -27 35 -45 43 -9 3 -25 -1 -36 -9 -18 -12 -20 -12 -17 4 2 9 4 22 4
29 1 7 12 23 26 36 22 19 27 35 32 95 4 51 3 72 -6 72 -6 0 -11 15 -11 34 0
30 -4 35 -27 38 -19 2 -29 10 -33 26 -3 13 -9 23 -15 24 -5 0 -16 3 -24 6 -7
3 -17 -1 -23 -9 -7 -11 -11 -11 -15 -1 -2 6 -11 12 -18 12 -8 0 -18 6 -22 13
-13 19 -71 37 -77 23 -2 -6 -5 -3 -5 7 -1 10 -5 16 -9 13 -5 -3 -29 16 -53 42
-24 26 -47 46 -51 45 -4 -2 -8 2 -8 8 0 8 -18 9 -55 5 -64 -7 -85 8 -85 58 0
26 -5 34 -30 43 -27 10 -30 9 -30 -7 0 -32 -22 -35 -47 -5 -21 24 -24 37 -23
104 1 42 -2 217 -6 389 -7 304 -6 312 12 305 11 -5 52 -26 93 -48z m-1253 -86
c19 -22 19 -22 -3 -8 -13 8 -23 17 -23 21 0 12 6 9 26 -13z m2761 -84 c-3 -16
-5 -15 -6 5 -1 14 -8 34 -16 44 -8 11 -15 27 -15 35 1 9 10 -2 21 -24 11 -22
18 -49 16 -60z m-2551 -102 c-7 -7 -46 16 -46 28 0 5 11 2 25 -7 14 -9 24 -19
21 -21z m3304 -3 c0 -21 -24 -28 -35 -10 -8 14 3 30 21 30 8 0 14 -9 14 -20z
m5170 -44 c0 -3 -4 -8 -10 -11 -5 -3 -10 -1 -10 4 0 6 5 11 10 11 6 0 10 -2
10 -4z m-13710 -56 c0 -5 -5 -10 -11 -10 -5 0 -7 5 -4 10 3 6 8 10 11 10 2 0
4 -4 4 -10z m300 -14 c0 -3 -4 -8 -10 -11 -5 -3 -10 -1 -10 4 0 6 5 11 10 11
6 0 10 -2 10 -4z m12790 -46 c0 -5 -4 -10 -10 -10 -5 0 -10 5 -10 10 0 6 5 10
10 10 6 0 10 -4 10 -10z m-5242 -23 c2 -12 -3 -17 -17 -17 -15 0 -21 6 -21 21
0 25 33 22 38 -4z m727 -97 c8 -25 -10 -50 -36 -50 -20 0 -36 40 -24 59 11 19
53 12 60 -9z m-6055 -80 c0 -5 -4 -10 -10 -10 -5 0 -10 5 -10 10 0 6 5 10 10
10 6 0 10 -4 10 -10z m5236 -35 c8 -19 -13 -45 -36 -45 -17 0 -34 36 -24 52 9
14 54 9 60 -7z m904 -45 c0 -21 -24 -28 -35 -10 -8 14 3 30 21 30 8 0 14 -9
14 -20z m1730 -30 c0 -5 -4 -10 -10 -10 -5 0 -10 5 -10 10 0 6 5 10 10 10 6 0
10 -4 10 -10z m40 -20 c0 -5 -2 -10 -4 -10 -3 0 -8 5 -11 10 -3 6 -1 10 4 10
6 0 11 -4 11 -10z m50 -20 c0 -5 -2 -10 -4 -10 -3 0 -8 5 -11 10 -3 6 -1 10 4
10 6 0 11 -4 11 -10z m45 -20 c3 -5 2 -10 -4 -10 -5 0 -13 5 -16 10 -3 6 -2
10 4 10 5 0 13 -4 16 -10z m-1060 -20 c0 -22 -39 -19 -43 3 -3 15 1 18 20 15
12 -2 23 -10 23 -18z m1110 0 c8 -13 -5 -13 -25 0 -13 8 -13 10 2 10 9 0 20
-4 23 -10z m-3188 -67 c1 -32 -13 -17 -23 21 -6 25 -5 28 7 17 8 -8 15 -25 16
-38z m1431 38 c19 -12 11 -45 -12 -49 -25 -5 -39 12 -31 37 7 22 21 26 43 12z
m1246 -24 c9 -15 7 -21 -8 -32 -22 -17 -46 -4 -46 25 0 35 34 39 54 7z m606 3
c0 -5 -2 -10 -4 -10 -3 0 -8 5 -11 10 -3 6 -1 10 4 10 6 0 11 -4 11 -10z
m-1485 -40 c0 -18 -6 -26 -23 -28 -24 -4 -38 18 -28 44 3 9 15 14 28 12 17 -2
23 -10 23 -28z m1535 20 c0 -5 -4 -10 -10 -10 -5 0 -10 5 -10 10 0 6 5 10 10
10 6 0 10 -4 10 -10z m40 -20 c0 -5 -2 -10 -4 -10 -3 0 -8 5 -11 10 -3 6 -1
10 4 10 6 0 11 -4 11 -10z m68 -26 c35 -17 38 -33 17 -79 -15 -34 -20 -19 -5
19 10 27 -8 56 -35 56 -8 0 -17 5 -20 10 -9 14 7 12 43 -6z m-8024 -33 c4 -5
24 -12 45 -16 22 -4 45 -13 52 -21 6 -8 20 -14 30 -14 10 0 20 -4 23 -9 5 -7
25 -13 81 -26 6 -1 15 -3 22 -3 6 -1 20 -16 30 -33 10 -17 32 -37 50 -44 36
-15 65 -67 69 -125 2 -19 5 -56 8 -82 5 -45 -8 -73 -23 -51 -8 12 -43 27 -56
23 -29 -8 -101 2 -111 15 -6 8 -16 15 -22 15 -6 0 -18 12 -26 28 -8 15 -40 52
-72 82 -89 85 -114 113 -114 127 0 7 -4 13 -9 13 -25 0 -40 106 -16 122 14 10
33 10 39 -1z m6492 -50 c15 -30 10 -44 -22 -62 -46 -24 -89 22 -60 66 22 33
65 31 82 -4z m-5891 -1 c3 -5 -1 -10 -10 -10 -9 0 -13 5 -10 10 3 6 8 10 10
10 2 0 7 -4 10 -10z m7412 -82 c-3 -7 -5 -2 -5 12 0 14 2 19 5 13 2 -7 2 -19
0 -25z m-1396 -82 l29 28 16 -22 c8 -12 23 -22 32 -22 9 0 28 -16 42 -35 24
-33 50 -46 50 -25 0 6 16 10 35 8 33 -2 35 -4 35 -40 0 -43 13 -53 78 -62 36
-5 42 -3 42 12 0 11 8 18 20 18 18 0 25 -15 21 -40 -1 -5 5 -6 13 -3 10 4 14
0 11 -14 -5 -24 23 -38 35 -18 5 7 6 17 4 21 -6 10 -1 10 20 2 9 -3 16 -12 16
-20 0 -8 6 -14 13 -14 7 0 17 -12 23 -28 16 -42 72 -42 65 1 0 4 3 7 9 7 6 0
10 -13 10 -29 0 -29 21 -57 34 -44 13 13 44 12 55 -1 9 -11 8 -18 -4 -30 -9
-9 -13 -20 -10 -26 3 -5 -1 -10 -10 -10 -8 0 -18 7 -21 15 -4 9 -19 15 -35 15
-16 0 -29 5 -29 10 0 6 -9 10 -20 10 -11 0 -20 6 -20 14 0 9 -7 12 -18 9 -10
-2 -35 5 -56 16 -20 12 -43 21 -52 21 -8 0 -17 7 -21 16 -3 10 -13 14 -25 11
-11 -3 -21 0 -24 8 -3 8 -13 11 -21 8 -9 -4 -22 1 -29 12 -8 10 -14 16 -14 12
0 -10 -134 50 -138 62 -2 5 -10 7 -18 4 -7 -3 -17 2 -20 11 -3 9 -11 13 -16
10 -5 -4 -28 3 -51 13 -23 11 -64 30 -92 42 -41 19 -46 24 -32 32 12 7 16 21
15 47 0 20 3 48 8 62 7 20 10 13 12 -39 l3 -64 30 29z m-5751 74 c0 -5 -7 -10
-15 -10 -8 0 -15 5 -15 10 0 6 7 10 15 10 8 0 15 -4 15 -10z m7130 -35 c0 -8
-4 -15 -10 -15 -5 0 -7 7 -4 15 4 8 8 15 10 15 2 0 4 -7 4 -15z m-40 -117
c-30 -84 -42 -104 -34 -53 7 43 43 129 51 121 3 -2 -5 -33 -17 -68z m-3935
-117 c3 -5 1 -12 -4 -15 -5 -3 -11 1 -15 9 -6 16 9 21 19 6z m-3515 -58 c0 -5
15 -8 32 -7 37 1 68 -14 68 -33 0 -7 7 -13 15 -13 14 0 42 -41 34 -50 -2 -2
14 -9 36 -16 25 -7 46 -21 56 -38 19 -31 57 -66 142 -129 21 -16 37 -37 37
-48 0 -15 7 -19 28 -19 51 0 107 -13 134 -31 15 -11 30 -19 35 -18 4 1 25 1
45 0 27 -1 38 -6 43 -20 3 -10 20 -26 37 -34 29 -14 33 -14 45 1 11 15 12 14
13 -10 0 -33 2 -33 36 -11 22 14 34 15 75 7 33 -7 49 -7 49 -1 0 15 31 47 44
47 13 -1 51 -81 61 -127 4 -22 17 -39 41 -53 19 -12 37 -31 40 -43 9 -32 70
-80 104 -81 33 -1 31 16 15 -162 -4 -36 -2 -53 5 -49 17 10 11 -9 -14 -45 -13
-20 -36 -42 -52 -50 -16 -8 -36 -19 -44 -26 -8 -6 -27 -14 -42 -18 -16 -3 -28
-13 -28 -21 0 -40 -64 -21 -75 23 -4 18 -2 30 9 38 14 10 12 14 -13 33 -16 13
-34 35 -40 49 -17 41 -125 70 -137 38 -4 -10 -31 -14 -105 -15 -73 -2 -112 -7
-144 -21 -25 -11 -45 -17 -45 -13 0 3 -6 1 -13 -6 -8 -6 -40 -12 -73 -13 -32
-2 -62 -7 -66 -12 -9 -14 -79 37 -118 85 -17 22 -50 76 -73 121 -31 62 -47 83
-69 90 -16 6 -33 19 -39 29 -5 11 -14 17 -20 14 -5 -4 -9 3 -9 14 0 28 -30
101 -41 101 -5 0 -9 7 -9 15 0 8 -6 12 -13 9 -8 -3 -14 1 -15 8 -2 36 -32 93
-55 104 -18 10 -24 19 -20 34 4 14 0 20 -10 20 -9 0 -22 6 -29 13 -7 7 -21 16
-30 20 -10 3 -18 12 -17 19 0 10 2 10 6 1 7 -19 34 -16 31 3 -2 9 7 20 20 25
12 5 22 5 22 1 0 -4 12 -7 28 -6 23 1 27 5 27 30 0 19 6 30 18 32 22 4 22 13
-4 46 -11 14 -17 26 -14 26 4 0 2 7 -5 15 -13 15 -5 55 11 55 6 0 7 5 4 10 -3
6 -2 10 3 10 6 0 10 6 9 13 -1 30 4 47 13 47 6 0 10 -3 10 -7z m6850 -154 c0
-20 -15 -26 -25 -9 -9 15 3 43 15 35 5 -3 10 -15 10 -26z m-1435 1 c39 -5 97
-14 130 -20 33 -6 95 -15 137 -19 42 -5 82 -13 90 -17 7 -5 25 -7 41 -5 15 1
43 -3 63 -9 19 -7 59 -13 87 -15 29 -2 88 -11 132 -19 44 -9 105 -18 136 -20
32 -2 66 -9 77 -15 12 -6 41 -11 65 -11 24 0 59 -5 77 -12 26 -9 35 -9 38 0 2
7 12 12 22 12 9 0 23 7 30 15 7 9 18 14 24 12 6 -2 17 2 24 10 8 7 18 11 23 7
5 -3 12 2 15 11 4 10 13 13 24 10 10 -3 21 -1 25 5 3 5 14 10 25 10 10 0 20 7
24 15 3 8 14 15 24 15 10 0 23 5 29 11 6 6 17 9 23 7 9 -3 8 -8 -4 -20 -19
-20 -21 -35 -4 -40 17 -6 -30 -97 -57 -112 -11 -6 -22 -12 -24 -13 -2 -1 -5
-17 -7 -34 -3 -23 2 -38 15 -50 18 -17 19 -16 25 22 4 23 11 37 16 34 6 -4 7
-11 4 -17 -5 -7 -1 -9 9 -5 10 3 17 2 17 -3 0 -13 -22 -53 -33 -61 -5 -4 0
-15 11 -25 22 -22 29 -98 10 -110 -7 -5 -32 -9 -56 -10 -53 -4 -129 -31 -136
-50 -3 -8 -12 -14 -20 -14 -8 0 -17 -6 -19 -12 -9 -21 -27 14 -21 38 6 22 -17
47 -23 27 -7 -19 -43 -2 -49 22 -9 35 0 70 15 67 11 -2 12 0 3 11 -15 17 -62
10 -62 -9 0 -17 -12 -18 -28 -2 -9 9 -12 7 -12 -11 0 -20 -4 -22 -24 -17 -14
3 -28 2 -31 -4 -3 -5 -21 -10 -39 -10 -36 0 -57 -15 -49 -36 3 -8 -2 -17 -11
-20 -19 -7 -22 -34 -3 -34 9 0 9 -2 -1 -9 -8 -4 -13 -11 -13 -15 3 -19 -3 -21
-44 -20 -50 2 -54 -1 -60 -48 -5 -47 -16 -78 -26 -78 -5 0 -9 -8 -9 -19 0 -38
-96 -67 -108 -32 -2 6 -7 9 -11 7 -13 -9 -34 12 -35 35 -1 22 -5 24 -56 24
-30 0 -57 -3 -60 -6 -8 -10 -80 -18 -80 -10 0 15 -71 3 -91 -15 -12 -11 -37
-17 -69 -18 -27 0 -50 -3 -50 -6 0 -3 -10 -6 -22 -7 -13 -1 -32 -14 -43 -28
-23 -28 -45 -33 -45 -10 0 21 -59 20 -90 -2 -17 -12 -25 -13 -28 -5 -2 7 -15
12 -28 12 -13 0 -34 5 -47 12 -12 6 -29 14 -37 18 -24 11 -28 50 -29 320 -1
317 3 353 38 371 14 8 28 16 31 19 26 29 79 50 110 45 19 -3 67 -10 105 -15z
m-3061 -203 c16 -25 -16 -56 -38 -37 -19 15 -20 32 -4 48 15 15 28 11 42 -11z
m4538 -67 c4 0 8 -5 8 -11 0 -6 -9 -8 -21 -4 -12 4 -24 2 -29 -4 -8 -14 -40
-4 -40 13 0 16 20 44 20 29 0 -23 30 -14 31 10 1 20 2 20 12 -5 6 -16 14 -28
19 -28z m-5343 -164 c25 -30 -24 -71 -54 -46 -18 15 -19 32 -3 48 16 16 43 15
57 -2z m1769 -23 c-26 -2 -71 -2 -100 0 -29 2 -8 3 47 3 55 0 79 -1 53 -3z
m3097 -108 c0 -22 -31 -33 -48 -16 -7 7 -6 15 3 26 17 21 45 15 45 -10z
m-2824 -297 c17 -31 -5 -19 -28 15 -51 72 -54 80 -19 42 21 -22 42 -48 47 -57z
m1759 62 c0 -5 -4 -10 -10 -10 -5 0 -10 5 -10 10 0 6 5 10 10 10 6 0 10 -4 10
-10z m-600 -6 c0 -10 -31 -36 -37 -31 -10 10 6 37 22 37 8 0 15 -3 15 -6z m50
-14 c8 -5 12 -12 9 -15 -8 -8 -39 5 -39 16 0 11 11 11 30 -1z m595 0 c3 -5 1
-10 -4 -10 -6 0 -11 5 -11 10 0 6 2 10 4 10 3 0 8 -4 11 -10z m-511 -25 c15
-8 39 -15 52 -15 12 0 26 -5 29 -10 4 -6 12 -10 18 -9 34 4 48 -5 67 -41 24
-47 27 -100 5 -100 -8 0 -15 -7 -15 -15 0 -19 -39 -55 -60 -55 -9 0 -25 9 -35
20 -10 11 -21 17 -26 14 -4 -2 -20 -2 -34 2 -20 5 -25 11 -22 25 3 11 1 19 -4
19 -5 0 -9 7 -9 15 0 8 -4 15 -8 15 -5 0 -9 7 -9 15 0 8 3 12 7 10 3 -2 12 5
19 16 11 18 9 21 -8 26 -22 6 -30 43 -9 43 9 0 9 3 0 12 -29 29 -4 37 42 13z
m-1114 -5 c-19 -13 -30 -13 -30 0 0 6 10 10 23 10 18 0 19 -2 7 -10z m987 -32
c-3 -7 -5 -2 -5 12 0 14 2 19 5 13 2 -7 2 -19 0 -25z m-1077 12 c-8 -5 -24 -9
-35 -9 l-20 0 20 9 c11 5 27 9 35 9 13 1 13 0 0 -9z m1425 -40 c3 -5 -1 -10
-9 -10 -9 0 -16 5 -16 10 0 6 4 10 9 10 6 0 13 -4 16 -10z m70 -20 c8 -13 -5
-13 -25 0 -13 8 -13 10 2 10 9 0 20 -4 23 -10z m-992 -237 c-7 -2 -19 -2 -25
0 -7 3 -2 5 12 5 14 0 19 -2 13 -5z m-155 -31 c-41 -19 -53 -52 -18 -52 11 0
20 -7 20 -15 0 -23 -37 -55 -65 -55 -14 0 -25 -4 -25 -10 0 -15 -30 -12 -30 3
0 6 -14 25 -30 41 -17 16 -30 40 -30 52 0 19 7 24 45 30 25 3 52 3 61 0 8 -3
22 1 30 9 9 8 30 15 47 14 l32 -1 -37 -16z m-222 -37 c-22 -17 -52 -20 -61 -6
-6 10 16 18 55 20 24 0 24 0 6 -14z m-100 -14 c-9 -13 -83 -24 -98 -14 -9 5 1
10 27 14 63 10 77 10 71 0z m-126 -17 c0 -9 -24 -30 -42 -37 -10 -3 -18 -15
-18 -26 0 -14 -5 -19 -14 -15 -8 3 -25 -1 -38 -9 -13 -8 -49 -17 -80 -19 -55
-4 -57 -4 -63 22 -5 23 -10 26 -38 22 -20 -3 -28 -1 -22 5 16 15 171 47 196
40 13 -3 28 -2 33 2 19 15 86 27 86 15z m1195 -22 c-3 -3 -11 0 -18 7 -9 10
-8 11 6 5 10 -3 15 -9 12 -12z m-962 -5 c-2 -4 -3 -13 -4 -19 0 -10 -2 -10 -5
-1 -3 7 -12 9 -20 6 -8 -3 -14 1 -14 11 0 11 7 15 23 12 12 -1 21 -6 20 -9z
m377 -306 c0 -14 -18 -23 -30 -16 -6 4 -8 11 -5 16 8 12 35 12 35 0z"/>
<path d="M7010 8309 c0 -5 7 -9 15 -9 8 0 15 -7 15 -15 0 -9 9 -25 20 -37 11
-12 20 -18 20 -14 0 5 6 3 14 -3 11 -9 15 -7 19 11 2 13 8 31 12 42 7 16 5 17
-12 8 -11 -6 -23 -8 -27 -5 -12 13 -76 31 -76 22z"/>
<path d="M7258 8313 c7 -3 16 -2 19 1 4 3 -2 6 -13 5 -11 0 -14 -3 -6 -6z"/>
<path d="M6935 8267 c-27 -9 -30 -14 -30 -48 0 -22 4 -40 10 -40 38 -5 67 -4
71 3 3 5 10 5 16 2 7 -4 8 -2 4 4 -4 7 -17 12 -29 12 -16 0 -18 3 -9 12 13 13
16 55 5 60 -5 2 -22 0 -38 -5z"/>
<path d="M12521 6020 c-20 -39 -21 -54 -21 -440 0 -219 4 -410 9 -423 7 -17
19 -26 46 -30 43 -7 61 -2 71 21 4 9 9 177 11 372 6 394 -2 493 -38 523 -34
27 -55 21 -78 -23z"/>
<path d="M7520 6016 c-19 -43 -20 -64 -20 -438 0 -432 2 -442 55 -444 17 0 35
1 42 4 29 9 33 71 33 459 0 414 -3 440 -45 457 -33 12 -45 5 -65 -38z m37
-183 c3 -76 0 -126 -10 -168 l-15 -60 -1 180 c-1 132 2 176 10 168 6 -6 13
-60 16 -120z"/>
<path d="M8717 6049 c4 -13 8 -18 11 -10 2 7 -1 18 -6 23 -8 8 -9 4 -5 -13z"/>
<path d="M10722 5538 c-7 -7 -12 -16 -12 -21 0 -4 -11 -23 -25 -41 -39 -52
-56 -183 -37 -291 6 -34 13 -43 45 -58 85 -40 101 2 91 236 -4 89 -11 168 -17
175 -12 15 -30 15 -45 0z"/>
<path d="M11040 5186 c0 -104 4 -166 10 -166 6 0 10 60 10 159 0 96 -4 162
-10 166 -7 4 -10 -52 -10 -159z"/>
<path d="M10593 5161 c5 -43 26 -77 44 -70 5 2 -4 29 -20 59 l-28 55 4 -44z"/>
<path d="M9293 6063 c-7 -2 -13 -11 -13 -18 0 -7 -7 -26 -15 -41 -12 -24 -15
-93 -15 -424 0 -442 0 -443 62 -448 69 -6 68 -11 68 455 0 281 -4 420 -11 436
-9 19 -51 51 -62 46 -1 0 -8 -3 -14 -6z m-6 -320 c-3 -10 -5 -2 -5 17 0 19 2
27 5 18 2 -10 2 -26 0 -35z m4 -273 c-1 -88 2 -136 10 -146 8 -10 9 -21 1 -41
-6 -16 -13 -41 -15 -58 -2 -16 -5 64 -6 179 0 115 2 207 5 203 3 -3 5 -65 5
-137z"/>
<path d="M13450 6018 c-18 -40 -20 -69 -20 -438 0 -442 0 -443 62 -448 69 -6
68 -11 68 456 0 463 -1 471 -68 472 -17 0 -28 -10 -42 -42z"/>
<path d="M8650 3113 c1 -20 16 -30 35 -22 18 7 18 8 2 8 -10 1 -15 6 -12 11 3
6 -1 10 -9 10 -9 0 -16 -3 -16 -7z"/>
<path d="M11621 2664 c0 -11 3 -14 6 -6 3 7 2 16 -1 19 -3 4 -6 -2 -5 -13z"/>
<path d="M11390 10470 c0 -6 7 -10 15 -10 8 0 15 2 15 4 0 2 -7 6 -15 10 -8 3
-15 1 -15 -4z"/>
<path d="M10085 9659 c-4 -6 -5 -12 -2 -15 2 -3 7 2 10 11 7 17 1 20 -8 4z"/>
<path d="M10007 9594 c-9 -13 -23 -21 -30 -19 -24 9 -37 -9 -28 -40 5 -17 10
-24 10 -16 1 8 11 -6 24 -30 13 -24 30 -45 39 -47 8 -1 30 13 49 33 20 20 44
35 58 35 18 0 22 4 18 20 -3 11 -2 18 1 16 4 -2 15 4 24 13 15 15 14 16 -21
13 -30 -3 -43 1 -60 20 -29 31 -62 32 -84 2z"/>
<path d="M11465 9601 c-3 -5 -1 -12 5 -16 5 -3 10 1 10 9 0 18 -6 21 -15 7z"/>
<path d="M10360 9557 c0 -29 7 -52 19 -65 22 -26 38 -28 62 -6 17 16 17 18
-11 46 -17 16 -30 33 -30 36 0 4 -9 13 -20 20 -19 11 -20 10 -20 -31z"/>
<path d="M11156 9545 c-11 -8 -16 -15 -10 -15 5 0 1 -5 -8 -11 -10 -5 -18 -15
-18 -21 0 -6 8 -17 18 -24 12 -10 14 -16 6 -21 -7 -5 -13 -17 -15 -28 -2 -10
-15 -22 -29 -26 -21 -6 -22 -7 -5 -9 11 -1 24 -2 30 0 5 1 14 -5 20 -13 5 -7
22 -17 36 -20 21 -5 28 -3 32 13 3 11 12 20 20 20 16 0 35 39 39 80 2 14 10
28 18 32 12 5 12 7 -2 7 -10 1 -18 5 -18 11 0 5 -15 13 -32 18 -18 6 -40 12
-48 16 -8 3 -24 -1 -34 -9z m44 -155 c0 -5 -5 -10 -11 -10 -5 0 -7 5 -4 10 3
6 8 10 11 10 2 0 4 -4 4 -10z"/>
<path d="M11310 9513 c0 -7 5 -13 11 -13 8 0 9 -12 4 -37 l-7 -37 20 24 c15
19 18 30 10 50 -9 27 -38 37 -38 13z"/>
<path d="M11300 9480 c0 -5 5 -10 10 -10 6 0 10 5 10 10 0 6 -4 10 -10 10 -5
0 -10 -4 -10 -10z"/>
<path d="M8502 8928 c-7 -7 -12 -23 -12 -37 l0 -24 20 23 c11 13 20 27 20 31
0 14 -17 18 -28 7z"/>
<path d="M8520 8809 c0 -5 5 -7 10 -4 6 3 10 8 10 11 0 2 -4 4 -10 4 -5 0 -10
-5 -10 -11z"/>
<path d="M10960 8316 c0 -9 5 -16 10 -16 6 0 10 4 10 9 0 6 -4 13 -10 16 -5 3
-10 -1 -10 -9z"/>
<path d="M10917 8252 c-21 -23 -22 -38 -2 -46 25 -9 17 -24 -10 -18 -14 2 -22
8 -19 14 10 16 -15 35 -41 30 -29 -5 -32 -17 -10 -39 8 -8 12 -20 8 -26 -4 -7
0 -8 12 -4 11 5 22 1 30 -10 19 -25 82 -26 88 -1 3 11 -2 22 -14 28 -25 14
-24 30 1 30 26 0 25 18 -2 41 -26 23 -21 23 -41 1z"/>
<path d="M10330 6220 c0 -5 5 -10 11 -10 5 0 7 5 4 10 -3 6 -8 10 -11 10 -2 0
-4 -4 -4 -10z"/>
</g>
</svg>
